<?xml version="1.0" encoding="utf-8"?>
<!-- Generator: Adobe Illustrator 16.0.4, SVG Export Plug-In . SVG Version: 6.00 Build 0)  -->
<!DOCTYPE svg PUBLIC "-//W3C//DTD SVG 1.1//EN" "http://www.w3.org/Graphics/SVG/1.1/DTD/svg11.dtd">
<svg version="1.1" id="Calque_1" xmlns="http://www.w3.org/2000/svg" xmlns:xlink="http://www.w3.org/1999/xlink" x="0px" y="0px"
	 width="500px" height="500px" viewBox="0 0 500 500" enable-background="new 0 0 500 500" xml:space="preserve">
<g>
	<path fill="#3395CC" d="M191.142,500c-32.129-0.545-60.237-9.936-84.333-28.164c-24.084-18.221-42.861-41.996-56.307-71.32
		C37.055,371.208,30.213,339.644,30,305.822c0.501-39.077,7.706-74.066,21.602-104.952c13.9-30.878,31.513-57.748,52.832-80.624
		c21.326-22.853,43.354-41.808,66.112-56.856c22.747-15.04,43.208-26.27,61.409-33.687c18.189-7.417,60.738-23.46,68.393-23.437
		c16.855-1.681,9.272,16.012,9.272,12.642c0.103,3.488-31.919,19.705-43.267,26.554c-33.167,21.646-65.406,44.467-89.213,75.006
		c-23.815,30.523-42.119,63.753-54.918,99.681c-12.8,35.92-19.271,72.796-19.404,110.625c0.414,44.57,8.87,79.322,25.374,104.251
		c16.5,24.936,38.607,37.601,66.325,38.012c20.461-0.402,41.997-8.822,64.589-25.3c22.604-16.461,43.863-38.563,63.765-66.316
		c19.917-27.746,36.07-58.742,48.483-92.99c12.389-34.24,18.623-69.355,18.686-105.308c-0.647-33.072-4.056-57.124-10.258-72.172
		c-6.187-15.057-13.273-24.983-21.251-29.821c-7.986-4.822-14.985-8.444-21.014-10.85c-6.029-2.399-9.186-7.489-9.501-15.27
		c0.158-6.376,3.22-11.663,9.185-15.846c5.966-4.183,13.92-9.469,23.847-15.846c8.594-6.179,15.688-11.174,21.33-15.009
		c5.626-3.812,10.882-5.776,15.758-5.887c8.917,0.395,18.655,7.978,29.221,22.742c10.566,14.765,19.704,34.279,27.422,58.561
		s11.758,50.89,12.137,79.835c-0.458,40.126-8.98,79.93-25.552,119.417s-38.422,75.558-65.56,108.228
		c-27.146,32.669-56.793,58.836-88.949,78.509C254.689,489.395,222.785,499.487,191.142,500L191.142,500z"/>
</g>
</svg>
