<?xml version="1.0" encoding="utf-8"?>
<!-- Generator: Adobe Illustrator 16.0.4, SVG Export Plug-In . SVG Version: 6.00 Build 0)  -->
<!DOCTYPE svg PUBLIC "-//W3C//DTD SVG 1.1//EN" "http://www.w3.org/Graphics/SVG/1.1/DTD/svg11.dtd">
<svg version="1.1" id="Calque_1" xmlns="http://www.w3.org/2000/svg" xmlns:xlink="http://www.w3.org/1999/xlink" x="0px" y="0px"
	 width="511.832px" height="511.84px" viewBox="0 0 511.832 511.84" enable-background="new 0 0 511.832 511.84"
	 xml:space="preserve">
<g>
	<path fill="#FFFFFF" d="M379.481,480.083l100.581-100.601c10.933-19.788,19.041-40.717,24.328-62.193L317.275,504.41
		C338.766,499.127,359.695,491.007,379.481,480.083"/>
	<path fill="#FFFFFF" d="M510.673,231.332L231.327,510.685c10.831,1.035,21.717,1.369,32.58,1.024l247.792-247.78
		C512.044,253.054,511.72,242.164,510.673,231.332"/>
	<path fill="#FFFFFF" d="M263.946,0L0,263.96c0.075,2.562,0.194,5.127,0.351,7.684L271.632,0.366
		C269.077,0.211,266.506,0.08,263.946,0"/>
	<path fill="#FFFFFF" d="M169.433,14.838L14.832,169.439c-0.684,1.925-1.348,3.855-1.989,5.775L175.209,12.853
		C173.28,13.49,171.353,14.153,169.433,14.838"/>
	<path fill="#FFFFFF" d="M323.368,383.482l59.368-59.358c4.434-8.325,8.003-16.991,10.698-25.867l109.499-109.5
		c-2.017-7.499-4.412-14.907-7.127-22.229l-96.271,96.258c0.218-4.713,0.218-9.441-0.03-14.152L247.894,400.257
		c4.702,0.24,9.431,0.25,14.143,0.033l-95.519,95.526c7.321,2.715,14.729,5.1,22.228,7.126L297.51,394.18
		C306.375,391.482,315.044,387.925,323.368,383.482"/>
	<path fill="#FFFFFF" d="M223.823,396.959l172.394-172.387c-0.775-3.468-1.692-6.903-2.717-10.314l84.945-84.941
		c-2.999-5.255-6.188-10.438-9.598-15.516l-82.238,82.25c-1.25-2.717-2.578-5.413-3.999-8.071L187.241,383.374
		c2.649,1.413,5.334,2.729,8.06,3.98l-81.504,81.507c5.079,3.396,10.254,6.585,15.51,9.584l84.202-84.203
		C216.921,395.266,220.355,396.184,223.823,396.959"/>
	<path fill="#FFFFFF" d="M165.612,369.097l202.743-202.731c-1.598-2.01-3.269-3.983-4.983-5.92l79.437-79.441
		c-1.938-2.076-3.913-4.14-5.943-6.163c-1.454-1.455-2.932-2.894-4.418-4.318l-79.393,79.41c-1.749-1.596-3.506-3.144-5.294-4.647
		L144.543,348.502c1.504,1.793,3.05,3.557,4.641,5.294l-78.659,78.662c1.424,1.475,2.848,2.952,4.303,4.41
		c2.032,2.026,4.086,4.001,6.171,5.953l78.693-78.703C161.639,365.842,163.601,367.503,165.612,369.097"/>
	<path fill="#FFFFFF" d="M126.874,321.772l194.145-194.144c-1.963-1.001-3.925-1.95-5.92-2.856L397.383,42.5
		c-3.346-2.226-6.733-4.36-10.16-6.415l-83.932,83.938c-1.962-0.686-3.915-1.328-5.888-1.92L117.348,298.146
		c0.592,1.975,1.246,3.937,1.93,5.891L36.08,387.223c2.043,3.43,4.183,6.814,6.405,10.179l81.542-81.549
		C124.918,317.861,125.883,319.82,126.874,321.772"/>
	<path fill="#FFFFFF" d="M111.212,251.361l139.4-139.397c-2.35,0.08-4.7,0.22-7.048,0.409l97.842-97.837
		c-3.061-1.084-6.156-2.113-9.24-3.073L229.392,114.237c-2.409,0.443-4.794,0.939-7.165,1.493l-107.24,107.245
		c-0.561,2.372-1.056,4.755-1.487,7.166L11.451,332.167c0.976,3.096,1.99,6.178,3.073,9.251l97.1-97.098
		C111.435,246.659,111.289,249.012,111.212,251.361"/>
</g>
</svg>
