<?xml version="1.0" encoding="utf-8"?>
<!-- Generator: Adobe Illustrator 16.0.4, SVG Export Plug-In . SVG Version: 6.00 Build 0)  -->
<!DOCTYPE svg PUBLIC "-//W3C//DTD SVG 1.1//EN" "http://www.w3.org/Graphics/SVG/1.1/DTD/svg11.dtd">
<svg version="1.1" id="Calque_1" xmlns="http://www.w3.org/2000/svg" xmlns:xlink="http://www.w3.org/1999/xlink" x="0px" y="0px"
	 width="507.1px" height="507.1px" viewBox="0 0 507.1 507.1" enable-background="new 0 0 507.1 507.1" xml:space="preserve">
<g>
	<path fill="#16183E" d="M374.139,473.325l99.163-99.185c10.78-19.51,18.774-40.143,23.986-61.318l-184.48,184.486
		C333.996,492.101,354.63,484.094,374.139,473.325"/>
	<path fill="#16183E" d="M503.483,228.076L228.071,503.495c10.677,1.021,21.409,1.351,32.119,1.011l244.304-244.291
		C504.834,249.492,504.517,238.754,503.483,228.076"/>
	<path fill="#16183E" d="M260.228,0L0,260.245c0.074,2.527,0.192,5.055,0.346,7.575L267.809,0.361
		C265.288,0.208,262.754,0.08,260.228,0"/>
	<path fill="#16183E" d="M167.047,14.629L14.623,167.053c-0.675,1.898-1.329,3.801-1.961,5.694L172.743,12.672
		C170.84,13.3,168.94,13.954,167.047,14.629"/>
	<path fill="#16183E" d="M318.816,378.083l58.532-58.523c4.371-8.208,7.889-16.751,10.546-25.503L495.851,186.1
		c-1.986-7.394-4.349-14.697-7.025-21.916l-94.915,94.903c0.215-4.647,0.215-9.309-0.031-13.954L244.403,394.623
		c4.638,0.237,9.298,0.247,13.944,0.032l-94.174,94.183c7.218,2.677,14.522,5.025,21.915,7.025L293.32,388.63
		C302.063,385.97,310.609,382.464,318.816,378.083"/>
	<path fill="#16183E" d="M220.671,391.372l169.967-169.961c-0.764-3.418-1.669-6.805-2.68-10.169l83.75-83.745
		c-2.957-5.182-6.1-10.291-9.463-15.297l-81.08,81.092c-1.232-2.679-2.542-5.337-3.942-7.957L184.604,377.976
		c2.612,1.393,5.26,2.689,7.946,3.925l-80.356,80.359c5.006,3.348,10.109,6.492,15.291,9.448l83.017-83.017
		C213.868,389.701,217.252,390.606,220.671,391.372"/>
	<path fill="#16183E" d="M163.281,363.901l199.889-199.877c-1.576-1.981-3.223-3.927-4.914-5.836l78.318-78.323
		c-1.912-2.047-3.857-4.082-5.86-6.076c-1.435-1.435-2.89-2.853-4.354-4.257l-78.275,78.291c-1.725-1.573-3.457-3.099-5.22-4.582
		L142.507,343.597c1.483,1.767,3.008,3.504,4.576,5.218L69.531,426.37c1.404,1.454,2.807,2.911,4.242,4.349
		c2.004,1.996,4.03,3.944,6.085,5.87l77.585-77.596C159.363,360.692,161.297,362.33,163.281,363.901"/>
	<path fill="#16183E" d="M125.087,317.242l191.412-191.41c-1.936-0.987-3.87-1.922-5.838-2.815l81.127-81.114
		c-3.298-2.195-6.638-4.299-10.017-6.325l-82.751,82.757c-1.932-0.676-3.857-1.309-5.803-1.894L115.696,293.948
		c0.584,1.948,1.228,3.882,1.902,5.809l-82.027,82.016c2.015,3.38,4.124,6.718,6.315,10.036l80.395-80.401
		C123.16,313.387,124.111,315.317,125.087,317.242"/>
	<path fill="#16183E" d="M109.646,247.823l137.437-137.436c-2.317,0.079-4.634,0.217-6.948,0.403l96.465-96.459
		c-3.018-1.069-6.069-2.083-9.11-3.03L226.163,112.629c-2.376,0.437-4.727,0.926-7.064,1.473l-105.73,105.735
		c-0.553,2.338-1.042,4.688-1.466,7.065L11.289,327.492c0.963,3.053,1.961,6.09,3.03,9.12l95.732-95.731
		C109.866,243.187,109.722,245.505,109.646,247.823"/>
</g>
</svg>
